<svg width="81" height="17" viewBox="0 0 81 17" fill="none" xmlns="http://www.w3.org/2000/svg">
  <path d="M20.7681 7.08099H7.21191V9.81433H20.7681V7.08099Z" fill="#F37032"/>
  <path d="M0.00390625 0V16.8694H28V0H0.00390625ZM25.2691 14.162H2.73475V2.73333H25.2691V14.162Z" fill="#F37032"/>
  <path d="M41.9276 2.39191H43.8967L39.8314 14H37.8306L33.7812 2.39191H35.7345L38.1561 9.60926C38.2832 9.95332 38.4181 10.398 38.5611 10.9432C38.704 11.4831 38.7966 11.8854 38.839 12.15C38.9078 11.7477 39.0136 11.2819 39.1565 10.7526C39.2995 10.2233 39.4159 9.83157 39.5059 9.5775L41.9276 2.39191Z" fill="#212121"/>
  <path d="M51.9953 14H45.4291V2.39191H51.9953V3.99576H47.3267V7.15583H51.7016V8.74381H47.3267V12.3882H51.9953V14Z" fill="#212121"/>
  <path d="M63.0635 14H60.8801L57.9741 9.25196L55.0442 14H53.0116L56.8625 7.98158L53.2578 2.39191H55.3698L58.0535 6.78266L60.7371 2.39191H62.7856L59.1571 8.01334L63.0635 14Z" fill="#212121"/>
  <path d="M71.194 14H64.6277V2.39191H71.194V3.99576H66.5253V7.15583H70.9002V8.74381H66.5253V12.3882H71.194V14Z" fill="#212121"/>
  <path d="M73.7109 14V2.39191H75.6085V12.3723H80.5233V14H73.7109Z" fill="#212121"/>
</svg>
